# xmcd
#
# Track frame offsets: 
#        150
#        17451
#        34612
#        49957
#        64952
#        79349
#        99107
#        110652
#        125516
#
# Disc length: 1917 seconds
#
# Revision: 0
# Processed by: cddbd v1.5.2PL0 Copyright (c) Steve Scherf et al.
# Submitted via: ExactAudioCopy v1.0b1
#
DISCID=70077b09
DTITLE=Ashley Monroe - Like a Rose
DYEAR=2013
DGENRE=Country
TTITLE0=Like a Rose
TTITLE1=Two Weeks Late
TTITLE2=Used
TTITLE3=Weed Instead of Roses
TTITLE4=You Got Me
TTITLE5=The Morning After
TTITLE6=Monroe Suede
TTITLE7=She's Driving Me Out of Your Mind
TTITLE8=You Ain't Dolly (And You Ain't Porter)
EXTD=
EXTT0=
EXTT1=
EXTT2=
EXTT3=
EXTT4=
EXTT5=
EXTT6=
EXTT7=
EXTT8=
PLAYORDER=
